<?xml version="1.0" standalone="no"?>
<!DOCTYPE svg PUBLIC "-//W3C//DTD SVG 20010904//EN"
 "http://www.w3.org/TR/2001/REC-SVG-20010904/DTD/svg10.dtd">
<svg version="1.0" xmlns="http://www.w3.org/2000/svg"
 width="512.000000pt" height="512.000000pt" viewBox="0 0 512.000000 512.000000"
 preserveAspectRatio="xMidYMid meet">

<g transform="translate(0.000000,512.000000) scale(0.100000,-0.100000)"
fill="#000000" stroke="none">
<path d="M381 5100 c-91 -24 -149 -57 -221 -126 -72 -69 -115 -142 -140 -238
-20 -78 -20 -106 -20 -2176 0 -2070 0 -2098 20 -2176 25 -96 68 -169 140 -238
73 -70 131 -102 225 -126 77 -20 111 -20 2175 -20 2070 0 2098 0 2176 20 96
25 169 68 238 140 70 73 102 131 126 225 20 77 20 111 20 2175 0 2064 0 2098
-20 2175 -24 94 -56 152 -126 225 -69 72 -142 115 -238 140 -78 20 -105 20
-2180 19 -2045 0 -2103 -1 -2175 -19z m1899 -2546 l0 -1596 -282 4 c-261 4
-287 6 -330 25 -57 26 -75 58 -88 156 -13 97 -13 2706 0 2815 12 104 35 145
93 166 60 22 74 23 355 25 l252 1 0 -1596z m1268 1344 c-3 -282 -8 -306 -71
-343 -30 -19 -56 -20 -529 -23 l-498 -3 0 304 c0 167 3 307 7 310 3 4 251 7
550 7 l544 0 -3 -252z m-168 -1110 c0 -195 -14 -305 -41 -334 -37 -39 -97 -44
-504 -42 l-380 3 -3 253 -2 252 465 0 465 0 0 -132z"/>
</g>
</svg>
